<svg xmlns="http://www.w3.org/2000/svg" xmlns:xlink="http://www.w3.org/1999/xlink" contentStyleType="text/css" data-diagram-type="SEQUENCE" height="1366px" preserveAspectRatio="none" style="width:1964px;height:1366px;background:#FFFFFF;" version="1.1" viewBox="0 0 1964 1366" width="1964px" zoomAndPan="magnify"><defs/><g><rect fill="#F5F5F5" height="1347.75" style="stroke:#181818;stroke-width:0.5;" width="1112.2925" x="117.0161" y="6"/><text fill="#000000" font-family="sans-serif" font-size="13" font-weight="bold" lengthAdjust="spacing" textLength="104.457" x="618.6709" y="18.0669">Local Services</text><rect fill="#F5F5F5" height="1347.75" style="stroke:#181818;stroke-width:0.5;" width="671.2671" x="1271.3086" y="6"/><text fill="#000000" font-family="sans-serif" font-size="13" font-weight="bold" lengthAdjust="spacing" textLength="122.6431" x="1543.3577" y="18.0669">Remote Services</text><g><title>End User</title><rect fill="#FFFFFF" height="728.1875" style="stroke:#181818;stroke-width:1;" width="10" x="34.4829" y="477.0781"/></g><g><title>Browser</title><rect fill="#FFFFFF" height="728.1875" style="stroke:#181818;stroke-width:1;" width="10" x="151.5356" y="477.0781"/></g><g><title>Local</title><rect fill="#FFFFFF" height="669.9219" style="stroke:#181818;stroke-width:1;" width="10" x="303.1025" y="506.2109"/></g><g><title>Local</title><rect fill="#FFFFFF" height="29.1328" style="stroke:#181818;stroke-width:1;" width="10" x="601.7046" y="987.3359"/></g><g><title>Local</title><rect fill="#FFFFFF" height="29.1328" style="stroke:#181818;stroke-width:1;" width="10" x="601.7046" y="1117.8672"/></g><g><title>Local</title><rect fill="#FFFFFF" height="158.6641" style="stroke:#181818;stroke-width:1;" width="10" x="749.0186" y="916.0703"/></g><g><title>iMessage</title><rect fill="#FFFFFF" height="145.6641" style="stroke:#181818;stroke-width:1;" width="10" x="942.1733" y="592.6094"/></g><g><title>iMessage</title><rect fill="#FFFFFF" height="216.9297" style="stroke:#181818;stroke-width:1;" width="10" x="1057.4932" y="857.8047"/></g><g><title>Local</title><rect fill="#FFFFFF" height="29.1328" style="stroke:#181818;stroke-width:1;" width="10" x="1181.0371" y="857.8047"/></g><g><title>iMessage</title><rect fill="#FFFFFF" height="29.1328" style="stroke:#181818;stroke-width:1;" width="10" x="1309.9331" y="389.6797"/></g><g><title>iMessage</title><rect fill="#FFFFFF" height="87.3984" style="stroke:#181818;stroke-width:1;" width="10" x="1309.9331" y="621.7422"/></g><g><title>Remote</title><rect fill="#FFFFFF" height="186.7969" style="stroke:#181818;stroke-width:1;" width="10" x="1568.0391" y="232.0156"/></g><g><title>Remote</title><rect fill="#FFFFFF" height="29.1328" style="stroke:#181818;stroke-width:1;" width="10" x="1894.3042" y="232.0156"/></g><g><title>Remote</title><rect fill="#FFFFFF" height="29.1328" style="stroke:#181818;stroke-width:1;" width="10" x="1894.3042" y="650.875"/></g><rect fill="#FFFFFF" fill-opacity="0.00000" height="264.1953" style="stroke:#000000;stroke-width:1.5;" width="703.2671" x="1255.3086" y="169.6172"/><rect fill="#FFFFFF" fill-opacity="0.00000" height="233.0625" style="stroke:#000000;stroke-width:1.5;" width="683.2671" x="1265.3086" y="193.75"/><rect fill="#FFFFFF" fill-opacity="0.00000" height="294.3281" style="stroke:#000000;stroke-width:1.5;" width="995.5146" x="249.7939" y="795.4063"/><rect fill="#FFFFFF" fill-opacity="0.00000" height="263.1953" style="stroke:#000000;stroke-width:1.5;" width="975.5146" x="259.7939" y="819.5391"/><g><title>End User</title><rect fill="#FFFFFF" fill-opacity="0.00000" height="1070.6484" width="8" x="35.4829" y="152.6172"/><line style="stroke:#181818;stroke-width:0.5;stroke-dasharray:5.0,5.0;" x1="39" x2="39" y1="152.6172" y2="1223.2656"/></g><g><title>Browser</title><rect fill="#FFFFFF" fill-opacity="0.00000" height="1070.6484" width="8" x="152.5356" y="152.6172"/><line style="stroke:#181818;stroke-width:0.5;stroke-dasharray:5.0,5.0;" x1="156.0161" x2="156.0161" y1="152.6172" y2="1223.2656"/></g><g><title>Local</title><rect fill="#FFFFFF" fill-opacity="0.00000" height="1070.6484" width="8" x="304.1025" y="152.6172"/><line style="stroke:#181818;stroke-width:0.5;stroke-dasharray:5.0,5.0;" x1="307.7939" x2="307.7939" y1="152.6172" y2="1223.2656"/></g><g><title>Local</title><rect fill="#FFFFFF" fill-opacity="0.00000" height="1070.6484" width="8" x="602.7046" y="152.6172"/><line style="stroke:#181818;stroke-width:0.5;stroke-dasharray:5.0,5.0;" x1="606.375" x2="606.375" y1="152.6172" y2="1223.2656"/></g><g><title>Local</title><rect fill="#FFFFFF" fill-opacity="0.00000" height="1070.6484" width="8" x="750.0186" y="152.6172"/><line style="stroke:#181818;stroke-width:0.5;stroke-dasharray:5.0,5.0;" x1="753.71" x2="753.71" y1="152.6172" y2="1223.2656"/></g><g><title>iMessage</title><rect fill="#FFFFFF" fill-opacity="0.00000" height="1070.6484" width="8" x="943.1733" y="152.6172"/><line style="stroke:#181818;stroke-width:0.5;stroke-dasharray:5.0,5.0;" x1="946.5488" x2="946.5488" y1="152.6172" y2="1223.2656"/></g><g><title>iMessage</title><rect fill="#FFFFFF" fill-opacity="0.00000" height="1070.6484" width="8" x="1058.4932" y="152.6172"/><line style="stroke:#181818;stroke-width:0.5;stroke-dasharray:5.0,5.0;" x1="1062.0928" x2="1062.0928" y1="152.6172" y2="1223.2656"/></g><g><title>Local</title><rect fill="#FFFFFF" fill-opacity="0.00000" height="1070.6484" width="8" x="1182.0371" y="152.6172"/><line style="stroke:#181818;stroke-width:0.5;stroke-dasharray:5.0,5.0;" x1="1185.7656" x2="1185.7656" y1="152.6172" y2="1223.2656"/></g><g><title>iMessage</title><rect fill="#FFFFFF" fill-opacity="0.00000" height="1070.6484" width="8" x="1310.9331" y="152.6172"/><line style="stroke:#181818;stroke-width:0.5;stroke-dasharray:5.0,5.0;" x1="1314.3086" x2="1314.3086" y1="152.6172" y2="1223.2656"/></g><g><title>Remote</title><rect fill="#FFFFFF" fill-opacity="0.00000" height="1070.6484" width="8" x="1400.1821" y="152.6172"/><line style="stroke:#181818;stroke-width:0.5;stroke-dasharray:5.0,5.0;" x1="1403.5576" x2="1403.5576" y1="152.6172" y2="1223.2656"/></g><g><title>Remote</title><rect fill="#FFFFFF" fill-opacity="0.00000" height="1070.6484" width="8" x="1569.0391" y="152.6172"/><line style="stroke:#181818;stroke-width:0.5;stroke-dasharray:5.0,5.0;" x1="1572.6387" x2="1572.6387" y1="152.6172" y2="1223.2656"/></g><g><title>Remote</title><rect fill="#FFFFFF" fill-opacity="0.00000" height="1070.6484" width="8" x="1895.3042" y="152.6172"/><line style="stroke:#181818;stroke-width:0.5;stroke-dasharray:5.0,5.0;" x1="1899.0327" x2="1899.0327" y1="152.6172" y2="1223.2656"/></g><text fill="#000000" font-family="sans-serif" font-size="14" lengthAdjust="spacing" textLength="62.9658" x="5" y="149.3154">End User</text><ellipse cx="39.4829" cy="84.8203" fill="#E2E2F0" rx="8" ry="8" style="stroke:#181818;stroke-width:0.5;"/><path d="M39.4829,92.8203 L39.4829,119.8203 M26.4829,100.8203 L52.4829,100.8203 M39.4829,119.8203 L26.4829,134.8203 M39.4829,119.8203 L52.4829,134.8203 " fill="#FFFFFF" fill-opacity="0.00000" style="stroke:#181818;stroke-width:0.5;"/><text fill="#000000" font-family="sans-serif" font-size="14" lengthAdjust="spacing" textLength="62.9658" x="5" y="1235.2607">End User</text><ellipse cx="39.4829" cy="1247.0625" fill="#E2E2F0" rx="8" ry="8" style="stroke:#181818;stroke-width:0.5;"/><path d="M39.4829,1255.0625 L39.4829,1282.0625 M26.4829,1263.0625 L52.4829,1263.0625 M39.4829,1282.0625 L26.4829,1297.0625 M39.4829,1282.0625 L52.4829,1297.0625 " fill="#FFFFFF" fill-opacity="0.00000" style="stroke:#181818;stroke-width:0.5;"/><rect fill="#E2E2F0" height="30.2969" rx="2.5" ry="2.5" style="stroke:#181818;stroke-width:0.5;" width="71.0391" x="121.0161" y="121.3203"/><text fill="#000000" font-family="sans-serif" font-size="14" lengthAdjust="spacing" textLength="57.0391" x="128.0161" y="141.3154">Browser</text><rect fill="#E2E2F0" height="30.2969" rx="2.5" ry="2.5" style="stroke:#181818;stroke-width:0.5;" width="71.0391" x="121.0161" y="1222.2656"/><text fill="#000000" font-family="sans-serif" font-size="14" lengthAdjust="spacing" textLength="57.0391" x="128.0161" y="1242.2607">Browser</text><rect fill="#E2E2F0" height="79.1875" rx="2.5" ry="2.5" style="stroke:#181818;stroke-width:0.5;" width="76.6172" x="269.7939" y="72.4297"/><text fill="#000000" font-family="sans-serif" font-size="14" lengthAdjust="spacing" textLength="36.5313" x="289.8369" y="92.4248">Local</text><text fill="#000000" font-family="sans-serif" font-size="14" lengthAdjust="spacing" textLength="36.0732" x="290.0659" y="108.7217">HTTP</text><text fill="#000000" font-family="sans-serif" font-size="14" lengthAdjust="spacing" textLength="39.334" x="288.4355" y="125.0186">Proxy</text><text fill="#000000" font-family="sans-serif" font-size="14" lengthAdjust="spacing" textLength="62.6172" x="276.7939" y="141.3154">Thread 1</text><rect fill="#E2E2F0" height="79.1875" rx="2.5" ry="2.5" style="stroke:#181818;stroke-width:0.5;" width="76.6172" x="269.7939" y="1222.2656"/><text fill="#000000" font-family="sans-serif" font-size="14" lengthAdjust="spacing" textLength="36.5313" x="289.8369" y="1242.2607">Local</text><text fill="#000000" font-family="sans-serif" font-size="14" lengthAdjust="spacing" textLength="36.0732" x="290.0659" y="1258.5576">HTTP</text><text fill="#000000" font-family="sans-serif" font-size="14" lengthAdjust="spacing" textLength="39.334" x="288.4355" y="1274.8545">Proxy</text><text fill="#000000" font-family="sans-serif" font-size="14" lengthAdjust="spacing" textLength="62.6172" x="276.7939" y="1291.1514">Thread 1</text><text fill="#000000" font-family="sans-serif" font-size="14" lengthAdjust="spacing" textLength="36.5313" x="585.439" y="84.1279">Local</text><text fill="#000000" font-family="sans-serif" font-size="14" lengthAdjust="spacing" textLength="36.0732" x="585.668" y="100.4248">HTTP</text><text fill="#000000" font-family="sans-serif" font-size="14" lengthAdjust="spacing" textLength="39.334" x="584.0376" y="116.7217">Proxy</text><text fill="#000000" font-family="sans-serif" font-size="14" lengthAdjust="spacing" textLength="44.6592" x="581.375" y="133.0186">Global</text><text fill="#000000" font-family="sans-serif" font-size="14" lengthAdjust="spacing" textLength="42.6494" x="582.3799" y="149.3154">Scope</text><path d="M588.7046,35.1328 C588.7046,25.1328 606.7046,25.1328 606.7046,25.1328 C606.7046,25.1328 624.7046,25.1328 624.7046,35.1328 L624.7046,61.1328 C624.7046,71.1328 606.7046,71.1328 606.7046,71.1328 C606.7046,71.1328 588.7046,71.1328 588.7046,61.1328 L588.7046,35.1328 " fill="#E2E2F0" style="stroke:#181818;stroke-width:1.5;"/><path d="M588.7046,35.1328 C588.7046,45.1328 606.7046,45.1328 606.7046,45.1328 C606.7046,45.1328 624.7046,45.1328 624.7046,35.1328 " fill="#FFFFFF" fill-opacity="0.00000" style="stroke:#181818;stroke-width:1.5;"/><text fill="#000000" font-family="sans-serif" font-size="14" lengthAdjust="spacing" textLength="36.5313" x="585.439" y="1235.2607">Local</text><text fill="#000000" font-family="sans-serif" font-size="14" lengthAdjust="spacing" textLength="36.0732" x="585.668" y="1251.5576">HTTP</text><text fill="#000000" font-family="sans-serif" font-size="14" lengthAdjust="spacing" textLength="39.334" x="584.0376" y="1267.8545">Proxy</text><text fill="#000000" font-family="sans-serif" font-size="14" lengthAdjust="spacing" textLength="44.6592" x="581.375" y="1284.1514">Global</text><text fill="#000000" font-family="sans-serif" font-size="14" lengthAdjust="spacing" textLength="42.6494" x="582.3799" y="1300.4482">Scope</text><path d="M588.7046,1313.75 C588.7046,1303.75 606.7046,1303.75 606.7046,1303.75 C606.7046,1303.75 624.7046,1303.75 624.7046,1313.75 L624.7046,1339.75 C624.7046,1349.75 606.7046,1349.75 606.7046,1349.75 C606.7046,1349.75 588.7046,1349.75 588.7046,1339.75 L588.7046,1313.75 " fill="#E2E2F0" style="stroke:#181818;stroke-width:1.5;"/><path d="M588.7046,1313.75 C588.7046,1323.75 606.7046,1323.75 606.7046,1323.75 C606.7046,1323.75 624.7046,1323.75 624.7046,1313.75 " fill="#FFFFFF" fill-opacity="0.00000" style="stroke:#181818;stroke-width:1.5;"/><rect fill="#E2E2F0" height="79.1875" rx="2.5" ry="2.5" style="stroke:#181818;stroke-width:0.5;" width="76.6172" x="715.71" y="72.4297"/><text fill="#000000" font-family="sans-serif" font-size="14" lengthAdjust="spacing" textLength="36.5313" x="735.7529" y="92.4248">Local</text><text fill="#000000" font-family="sans-serif" font-size="14" lengthAdjust="spacing" textLength="36.0732" x="735.9819" y="108.7217">HTTP</text><text fill="#000000" font-family="sans-serif" font-size="14" lengthAdjust="spacing" textLength="39.334" x="734.3516" y="125.0186">Proxy</text><text fill="#000000" font-family="sans-serif" font-size="14" lengthAdjust="spacing" textLength="62.6172" x="722.71" y="141.3154">Thread 2</text><rect fill="#E2E2F0" height="79.1875" rx="2.5" ry="2.5" style="stroke:#181818;stroke-width:0.5;" width="76.6172" x="715.71" y="1222.2656"/><text fill="#000000" font-family="sans-serif" font-size="14" lengthAdjust="spacing" textLength="36.5313" x="735.7529" y="1242.2607">Local</text><text fill="#000000" font-family="sans-serif" font-size="14" lengthAdjust="spacing" textLength="36.0732" x="735.9819" y="1258.5576">HTTP</text><text fill="#000000" font-family="sans-serif" font-size="14" lengthAdjust="spacing" textLength="39.334" x="734.3516" y="1274.8545">Proxy</text><text fill="#000000" font-family="sans-serif" font-size="14" lengthAdjust="spacing" textLength="62.6172" x="722.71" y="1291.1514">Thread 2</text><rect fill="#E2E2F0" height="62.8906" rx="2.5" ry="2.5" style="stroke:#181818;stroke-width:0.5;" width="79.249" x="907.5488" y="88.7266"/><text fill="#000000" font-family="sans-serif" font-size="14" lengthAdjust="spacing" textLength="65.249" x="914.5488" y="108.7217">iMessage</text><text fill="#000000" font-family="sans-serif" font-size="14" lengthAdjust="spacing" textLength="35.2598" x="929.5435" y="125.0186">Send</text><text fill="#000000" font-family="sans-serif" font-size="14" lengthAdjust="spacing" textLength="48.9521" x="922.6973" y="141.3154">Library</text><rect fill="#E2E2F0" height="62.8906" rx="2.5" ry="2.5" style="stroke:#181818;stroke-width:0.5;" width="79.249" x="907.5488" y="1222.2656"/><text fill="#000000" font-family="sans-serif" font-size="14" lengthAdjust="spacing" textLength="65.249" x="914.5488" y="1242.2607">iMessage</text><text fill="#000000" font-family="sans-serif" font-size="14" lengthAdjust="spacing" textLength="35.2598" x="929.5435" y="1258.5576">Send</text><text fill="#000000" font-family="sans-serif" font-size="14" lengthAdjust="spacing" textLength="48.9521" x="922.6973" y="1274.8545">Library</text><rect fill="#E2E2F0" height="62.8906" rx="2.5" ry="2.5" style="stroke:#181818;stroke-width:0.5;" width="80.8008" x="1022.0928" y="88.7266"/><text fill="#000000" font-family="sans-serif" font-size="14" lengthAdjust="spacing" textLength="65.249" x="1029.8687" y="108.7217">iMessage</text><text fill="#000000" font-family="sans-serif" font-size="14" lengthAdjust="spacing" textLength="66.8008" x="1029.0928" y="125.0186">Database</text><text fill="#000000" font-family="sans-serif" font-size="14" lengthAdjust="spacing" textLength="53.2178" x="1035.8843" y="141.3154">Monitor</text><rect fill="#E2E2F0" height="62.8906" rx="2.5" ry="2.5" style="stroke:#181818;stroke-width:0.5;" width="80.8008" x="1022.0928" y="1222.2656"/><text fill="#000000" font-family="sans-serif" font-size="14" lengthAdjust="spacing" textLength="65.249" x="1029.8687" y="1242.2607">iMessage</text><text fill="#000000" font-family="sans-serif" font-size="14" lengthAdjust="spacing" textLength="66.8008" x="1029.0928" y="1258.5576">Database</text><text fill="#000000" font-family="sans-serif" font-size="14" lengthAdjust="spacing" textLength="53.2178" x="1035.8843" y="1274.8545">Monitor</text><text fill="#000000" font-family="sans-serif" font-size="14" lengthAdjust="spacing" textLength="36.5313" x="1164.7715" y="116.7217">Local</text><text fill="#000000" font-family="sans-serif" font-size="14" lengthAdjust="spacing" textLength="72.543" x="1146.7656" y="133.0186">iMessages</text><text fill="#000000" font-family="sans-serif" font-size="14" lengthAdjust="spacing" textLength="66.8008" x="1149.6367" y="149.3154">Database</text><path d="M1168.0371,67.7266 C1168.0371,57.7266 1186.0371,57.7266 1186.0371,57.7266 C1186.0371,57.7266 1204.0371,57.7266 1204.0371,67.7266 L1204.0371,93.7266 C1204.0371,103.7266 1186.0371,103.7266 1186.0371,103.7266 C1186.0371,103.7266 1168.0371,103.7266 1168.0371,93.7266 L1168.0371,67.7266 " fill="#E2E2F0" style="stroke:#181818;stroke-width:1.5;"/><path d="M1168.0371,67.7266 C1168.0371,77.7266 1186.0371,77.7266 1186.0371,77.7266 C1186.0371,77.7266 1204.0371,77.7266 1204.0371,67.7266 " fill="#FFFFFF" fill-opacity="0.00000" style="stroke:#181818;stroke-width:1.5;"/><text fill="#000000" font-family="sans-serif" font-size="14" lengthAdjust="spacing" textLength="36.5313" x="1164.7715" y="1235.2607">Local</text><text fill="#000000" font-family="sans-serif" font-size="14" lengthAdjust="spacing" textLength="72.543" x="1146.7656" y="1251.5576">iMessages</text><text fill="#000000" font-family="sans-serif" font-size="14" lengthAdjust="spacing" textLength="66.8008" x="1149.6367" y="1267.8545">Database</text><path d="M1168.0371,1281.1563 C1168.0371,1271.1563 1186.0371,1271.1563 1186.0371,1271.1563 C1186.0371,1271.1563 1204.0371,1271.1563 1204.0371,1281.1563 L1204.0371,1307.1563 C1204.0371,1317.1563 1186.0371,1317.1563 1186.0371,1317.1563 C1186.0371,1317.1563 1168.0371,1317.1563 1168.0371,1307.1563 L1168.0371,1281.1563 " fill="#E2E2F0" style="stroke:#181818;stroke-width:1.5;"/><path d="M1168.0371,1281.1563 C1168.0371,1291.1563 1186.0371,1291.1563 1186.0371,1291.1563 C1186.0371,1291.1563 1204.0371,1291.1563 1204.0371,1281.1563 " fill="#FFFFFF" fill-opacity="0.00000" style="stroke:#181818;stroke-width:1.5;"/><rect fill="#E2E2F0" height="62.8906" rx="2.5" ry="2.5" style="stroke:#181818;stroke-width:0.5;" width="79.249" x="1275.3086" y="88.7266"/><text fill="#000000" font-family="sans-serif" font-size="14" lengthAdjust="spacing" textLength="65.249" x="1282.3086" y="108.7217">iMessage</text><text fill="#000000" font-family="sans-serif" font-size="14" lengthAdjust="spacing" textLength="52.2061" x="1288.8301" y="125.0186">System</text><text fill="#000000" font-family="sans-serif" font-size="14" lengthAdjust="spacing" textLength="51.7412" x="1289.0625" y="141.3154">Service</text><rect fill="#E2E2F0" height="62.8906" rx="2.5" ry="2.5" style="stroke:#181818;stroke-width:0.5;" width="79.249" x="1275.3086" y="1222.2656"/><text fill="#000000" font-family="sans-serif" font-size="14" lengthAdjust="spacing" textLength="65.249" x="1282.3086" y="1242.2607">iMessage</text><text fill="#000000" font-family="sans-serif" font-size="14" lengthAdjust="spacing" textLength="52.2061" x="1288.8301" y="1258.5576">System</text><text fill="#000000" font-family="sans-serif" font-size="14" lengthAdjust="spacing" textLength="51.7412" x="1289.0625" y="1274.8545">Service</text><rect fill="#E2E2F0" height="62.8906" rx="2.5" ry="2.5" style="stroke:#181818;stroke-width:0.5;" width="79.249" x="1364.5576" y="88.7266"/><text fill="#000000" font-family="sans-serif" font-size="14" lengthAdjust="spacing" textLength="54.6465" x="1376.8589" y="108.7217">Remote</text><text fill="#000000" font-family="sans-serif" font-size="14" lengthAdjust="spacing" textLength="65.249" x="1371.5576" y="125.0186">iMessage</text><text fill="#000000" font-family="sans-serif" font-size="14" lengthAdjust="spacing" textLength="61.1953" x="1373.5845" y="141.3154">Receiver</text><rect fill="#E2E2F0" height="62.8906" rx="2.5" ry="2.5" style="stroke:#181818;stroke-width:0.5;" width="79.249" x="1364.5576" y="1222.2656"/><text fill="#000000" font-family="sans-serif" font-size="14" lengthAdjust="spacing" textLength="54.6465" x="1376.8589" y="1242.2607">Remote</text><text fill="#000000" font-family="sans-serif" font-size="14" lengthAdjust="spacing" textLength="65.249" x="1371.5576" y="1258.5576">iMessage</text><text fill="#000000" font-family="sans-serif" font-size="14" lengthAdjust="spacing" textLength="61.1953" x="1373.5845" y="1274.8545">Receiver</text><rect fill="#E2E2F0" height="79.1875" rx="2.5" ry="2.5" style="stroke:#181818;stroke-width:0.5;" width="80.8008" x="1532.6387" y="72.4297"/><text fill="#000000" font-family="sans-serif" font-size="14" lengthAdjust="spacing" textLength="54.6465" x="1545.7158" y="92.4248">Remote</text><text fill="#000000" font-family="sans-serif" font-size="14" lengthAdjust="spacing" textLength="65.249" x="1540.4146" y="108.7217">iMessage</text><text fill="#000000" font-family="sans-serif" font-size="14" lengthAdjust="spacing" textLength="66.8008" x="1539.6387" y="125.0186">Database</text><text fill="#000000" font-family="sans-serif" font-size="14" lengthAdjust="spacing" textLength="53.2178" x="1546.4302" y="141.3154">Monitor</text><rect fill="#E2E2F0" height="79.1875" rx="2.5" ry="2.5" style="stroke:#181818;stroke-width:0.5;" width="80.8008" x="1532.6387" y="1222.2656"/><text fill="#000000" font-family="sans-serif" font-size="14" lengthAdjust="spacing" textLength="54.6465" x="1545.7158" y="1242.2607">Remote</text><text fill="#000000" font-family="sans-serif" font-size="14" lengthAdjust="spacing" textLength="65.249" x="1540.4146" y="1258.5576">iMessage</text><text fill="#000000" font-family="sans-serif" font-size="14" lengthAdjust="spacing" textLength="66.8008" x="1539.6387" y="1274.8545">Database</text><text fill="#000000" font-family="sans-serif" font-size="14" lengthAdjust="spacing" textLength="53.2178" x="1546.4302" y="1291.1514">Monitor</text><text fill="#000000" font-family="sans-serif" font-size="14" lengthAdjust="spacing" textLength="54.6465" x="1868.981" y="116.7217">Remote</text><text fill="#000000" font-family="sans-serif" font-size="14" lengthAdjust="spacing" textLength="72.543" x="1860.0327" y="133.0186">iMessages</text><text fill="#000000" font-family="sans-serif" font-size="14" lengthAdjust="spacing" textLength="66.8008" x="1862.9038" y="149.3154">Database</text><path d="M1881.3042,67.7266 C1881.3042,57.7266 1899.3042,57.7266 1899.3042,57.7266 C1899.3042,57.7266 1917.3042,57.7266 1917.3042,67.7266 L1917.3042,93.7266 C1917.3042,103.7266 1899.3042,103.7266 1899.3042,103.7266 C1899.3042,103.7266 1881.3042,103.7266 1881.3042,93.7266 L1881.3042,67.7266 " fill="#E2E2F0" style="stroke:#181818;stroke-width:1.5;"/><path d="M1881.3042,67.7266 C1881.3042,77.7266 1899.3042,77.7266 1899.3042,77.7266 C1899.3042,77.7266 1917.3042,77.7266 1917.3042,67.7266 " fill="#FFFFFF" fill-opacity="0.00000" style="stroke:#181818;stroke-width:1.5;"/><text fill="#000000" font-family="sans-serif" font-size="14" lengthAdjust="spacing" textLength="54.6465" x="1868.981" y="1235.2607">Remote</text><text fill="#000000" font-family="sans-serif" font-size="14" lengthAdjust="spacing" textLength="72.543" x="1860.0327" y="1251.5576">iMessages</text><text fill="#000000" font-family="sans-serif" font-size="14" lengthAdjust="spacing" textLength="66.8008" x="1862.9038" y="1267.8545">Database</text><path d="M1881.3042,1281.1563 C1881.3042,1271.1563 1899.3042,1271.1563 1899.3042,1271.1563 C1899.3042,1271.1563 1917.3042,1271.1563 1917.3042,1281.1563 L1917.3042,1307.1563 C1917.3042,1317.1563 1899.3042,1317.1563 1899.3042,1317.1563 C1899.3042,1317.1563 1881.3042,1317.1563 1881.3042,1307.1563 L1881.3042,1281.1563 " fill="#E2E2F0" style="stroke:#181818;stroke-width:1.5;"/><path d="M1881.3042,1281.1563 C1881.3042,1291.1563 1899.3042,1291.1563 1899.3042,1291.1563 C1899.3042,1291.1563 1917.3042,1291.1563 1917.3042,1281.1563 " fill="#FFFFFF" fill-opacity="0.00000" style="stroke:#181818;stroke-width:1.5;"/><g><title>End User</title><rect fill="#FFFFFF" height="728.1875" style="stroke:#181818;stroke-width:1;" width="10" x="34.4829" y="477.0781"/></g><g><title>Browser</title><rect fill="#FFFFFF" height="728.1875" style="stroke:#181818;stroke-width:1;" width="10" x="151.5356" y="477.0781"/></g><g><title>Local</title><rect fill="#FFFFFF" height="669.9219" style="stroke:#181818;stroke-width:1;" width="10" x="303.1025" y="506.2109"/></g><g><title>Local</title><rect fill="#FFFFFF" height="29.1328" style="stroke:#181818;stroke-width:1;" width="10" x="601.7046" y="987.3359"/></g><g><title>Local</title><rect fill="#FFFFFF" height="29.1328" style="stroke:#181818;stroke-width:1;" width="10" x="601.7046" y="1117.8672"/></g><g><title>Local</title><rect fill="#FFFFFF" height="158.6641" style="stroke:#181818;stroke-width:1;" width="10" x="749.0186" y="916.0703"/></g><g><title>iMessage</title><rect fill="#FFFFFF" height="145.6641" style="stroke:#181818;stroke-width:1;" width="10" x="942.1733" y="592.6094"/></g><g><title>iMessage</title><rect fill="#FFFFFF" height="216.9297" style="stroke:#181818;stroke-width:1;" width="10" x="1057.4932" y="857.8047"/></g><g><title>Local</title><rect fill="#FFFFFF" height="29.1328" style="stroke:#181818;stroke-width:1;" width="10" x="1181.0371" y="857.8047"/></g><g><title>iMessage</title><rect fill="#FFFFFF" height="29.1328" style="stroke:#181818;stroke-width:1;" width="10" x="1309.9331" y="389.6797"/></g><g><title>iMessage</title><rect fill="#FFFFFF" height="87.3984" style="stroke:#181818;stroke-width:1;" width="10" x="1309.9331" y="621.7422"/></g><g><title>Remote</title><rect fill="#FFFFFF" height="186.7969" style="stroke:#181818;stroke-width:1;" width="10" x="1568.0391" y="232.0156"/></g><g><title>Remote</title><rect fill="#FFFFFF" height="29.1328" style="stroke:#181818;stroke-width:1;" width="10" x="1894.3042" y="232.0156"/></g><g><title>Remote</title><rect fill="#FFFFFF" height="29.1328" style="stroke:#181818;stroke-width:1;" width="10" x="1894.3042" y="650.875"/></g><path d="M1255.3086,169.6172 L1605.4404,169.6172 L1605.4404,176.75 L1595.4404,186.75 L1255.3086,186.75 L1255.3086,169.6172 " fill="#EEEEEE" style="stroke:#000000;stroke-width:1.5;"/><rect fill="#FFFFFF" fill-opacity="0.00000" height="264.1953" style="stroke:#000000;stroke-width:1.5;" width="703.2671" x="1255.3086" y="169.6172"/><text fill="#000000" font-family="sans-serif" font-size="13" font-weight="bold" lengthAdjust="spacing" textLength="305.1318" x="1270.3086" y="182.6841">Monitor for incoming iMessages remotely</text><path d="M1265.3086,193.75 L1341.9326,193.75 L1341.9326,200.8828 L1331.9326,210.8828 L1265.3086,210.8828 L1265.3086,193.75 " fill="#EEEEEE" style="stroke:#000000;stroke-width:1.5;"/><rect fill="#FFFFFF" fill-opacity="0.00000" height="233.0625" style="stroke:#000000;stroke-width:1.5;" width="683.2671" x="1265.3086" y="193.75"/><text fill="#000000" font-family="sans-serif" font-size="13" font-weight="bold" lengthAdjust="spacing" textLength="31.624" x="1280.3086" y="206.8169">loop</text><text fill="#000000" font-family="sans-serif" font-size="11" font-weight="bold" lengthAdjust="spacing" textLength="137.7632" x="1356.9326" y="205.9604">[every X milliseconds]</text><polygon fill="#181818" points="1882.3042,228.0156,1892.3042,232.0156,1882.3042,236.0156,1886.3042,232.0156" style="stroke:#181818;stroke-width:1;"/><line style="stroke:#181818;stroke-width:1;" x1="1578.0391" x2="1888.3042" y1="232.0156" y2="232.0156"/><text fill="#000000" font-family="sans-serif" font-size="13" lengthAdjust="spacing" textLength="99.5439" x="1585.0391" y="226.9497">SELECT LIMIT 1</text><polygon fill="#181818" points="1589.0391,257.1484,1579.0391,261.1484,1589.0391,265.1484,1585.0391,261.1484" style="stroke:#181818;stroke-width:1;"/><line style="stroke:#181818;stroke-width:1;stroke-dasharray:2.0,2.0;" x1="1583.0391" x2="1898.3042" y1="261.1484" y2="261.1484"/><text fill="#000000" font-family="sans-serif" font-size="13" lengthAdjust="spacing" textLength="42.0405" x="1595.0391" y="256.0825">record</text><line style="stroke:#181818;stroke-width:1;" x1="1578.0391" x2="1620.0391" y1="290.2813" y2="290.2813"/><line style="stroke:#181818;stroke-width:1;" x1="1620.0391" x2="1620.0391" y1="290.2813" y2="303.2813"/><line style="stroke:#181818;stroke-width:1;" x1="1579.0391" x2="1620.0391" y1="303.2813" y2="303.2813"/><polygon fill="#181818" points="1589.0391,299.2813,1579.0391,303.2813,1589.0391,307.2813,1585.0391,303.2813" style="stroke:#181818;stroke-width:1;"/><text fill="#000000" font-family="sans-serif" font-size="13" lengthAdjust="spacing" textLength="292.2651" x="1585.0391" y="285.2153">uuid, realPayload = lineSplit(record.payload)</text><line style="stroke:#181818;stroke-width:1;" x1="1578.0391" x2="1620.0391" y1="347.5469" y2="347.5469"/><line style="stroke:#181818;stroke-width:1;" x1="1620.0391" x2="1620.0391" y1="347.5469" y2="360.5469"/><line style="stroke:#181818;stroke-width:1;" x1="1579.0391" x2="1620.0391" y1="360.5469" y2="360.5469"/><polygon fill="#181818" points="1589.0391,356.5469,1579.0391,360.5469,1589.0391,364.5469,1585.0391,360.5469" style="stroke:#181818;stroke-width:1;"/><text fill="#000000" font-family="sans-serif" font-size="13" lengthAdjust="spacing" textLength="259.0542" x="1585.0391" y="327.3481">response = fulfillHTTPRequest(payload)</text><text fill="#000000" font-family="sans-serif" font-size="13" lengthAdjust="spacing" textLength="224.2437" x="1585.0391" y="342.481">response = uuid + '\n' + response</text><polygon fill="#181818" points="1330.9331,385.6797,1320.9331,389.6797,1330.9331,393.6797,1326.9331,389.6797" style="stroke:#181818;stroke-width:1;"/><line style="stroke:#181818;stroke-width:1;" x1="1324.9331" x2="1567.0391" y1="389.6797" y2="389.6797"/><text fill="#000000" font-family="sans-serif" font-size="13" lengthAdjust="spacing" textLength="229.106" x="1336.9331" y="384.6138">iMessage(record.sender, response)</text><polygon fill="#181818" points="1561.0391,414.8125,1571.0391,418.8125,1561.0391,422.8125,1565.0391,418.8125" style="stroke:#181818;stroke-width:1;"/><line style="stroke:#181818;stroke-width:1;stroke-dasharray:2.0,2.0;" x1="1314.9331" x2="1567.0391" y1="418.8125" y2="418.8125"/><text fill="#000000" font-family="sans-serif" font-size="13" lengthAdjust="spacing" textLength="26.4951" x="1321.9331" y="413.7466">ACK</text><polygon fill="#181818" points="139.5356,473.0781,149.5356,477.0781,139.5356,481.0781,143.5356,477.0781" style="stroke:#181818;stroke-width:1;"/><line style="stroke:#181818;stroke-width:1;" x1="44.4829" x2="145.5356" y1="477.0781" y2="477.0781"/><text fill="#000000" font-family="sans-serif" font-size="13" lengthAdjust="spacing" textLength="78.9141" x="51.4829" y="456.8794">Click Link to</text><text fill="#000000" font-family="sans-serif" font-size="13" lengthAdjust="spacing" textLength="92.2061" x="51.4829" y="472.0122">http://foo.com</text><polygon fill="#181818" points="291.1025,502.2109,301.1025,506.2109,291.1025,510.2109,295.1025,506.2109" style="stroke:#181818;stroke-width:1;"/><line style="stroke:#181818;stroke-width:1;" x1="161.5356" x2="297.1025" y1="506.2109" y2="506.2109"/><text fill="#000000" font-family="sans-serif" font-size="13" lengthAdjust="spacing" textLength="122.5669" x="168.5356" y="501.145">GET http://foo.com</text><line style="stroke:#181818;stroke-width:1;" x1="313.1025" x2="355.1025" y1="550.4766" y2="550.4766"/><line style="stroke:#181818;stroke-width:1;" x1="355.1025" x2="355.1025" y1="550.4766" y2="563.4766"/><line style="stroke:#181818;stroke-width:1;" x1="314.1025" x2="355.1025" y1="563.4766" y2="563.4766"/><polygon fill="#181818" points="324.1025,559.4766,314.1025,563.4766,324.1025,567.4766,320.1025,563.4766" style="stroke:#181818;stroke-width:1;"/><text fill="#000000" font-family="sans-serif" font-size="13" lengthAdjust="spacing" textLength="111.8647" x="320.1025" y="530.2778">uuid = getUUID()</text><text fill="#000000" font-family="sans-serif" font-size="13" lengthAdjust="spacing" textLength="264.6021" x="320.1025" y="545.4106">payload = uuid + '\n' + receivedPayload</text><polygon fill="#181818" points="930.1733,588.6094,940.1733,592.6094,930.1733,596.6094,934.1733,592.6094" style="stroke:#181818;stroke-width:1;"/><line style="stroke:#181818;stroke-width:1;" x1="313.1025" x2="936.1733" y1="592.6094" y2="592.6094"/><text fill="#000000" font-family="sans-serif" font-size="13" lengthAdjust="spacing" textLength="238.7354" x="320.1025" y="587.5435">iMessage(remoteRecipient, payload)</text><polygon fill="#181818" points="1297.9331,617.7422,1307.9331,621.7422,1297.9331,625.7422,1301.9331,621.7422" style="stroke:#181818;stroke-width:1;"/><line style="stroke:#181818;stroke-width:1;" x1="952.1733" x2="1303.9331" y1="621.7422" y2="621.7422"/><text fill="#000000" font-family="sans-serif" font-size="13" lengthAdjust="spacing" textLength="297.7114" x="959.1733" y="616.6763">send iMessage to remoteRecipient {payload}</text><polygon fill="#181818" points="1882.3042,646.875,1892.3042,650.875,1882.3042,654.875,1886.3042,650.875" style="stroke:#181818;stroke-width:1;"/><line style="stroke:#181818;stroke-width:1;" x1="1319.9331" x2="1888.3042" y1="650.875" y2="650.875"/><text fill="#000000" font-family="sans-serif" font-size="13" lengthAdjust="spacing" textLength="109.5542" x="1326.9331" y="645.8091">INSERT message</text><polygon fill="#181818" points="1330.9331,676.0078,1320.9331,680.0078,1330.9331,684.0078,1326.9331,680.0078" style="stroke:#181818;stroke-width:1;"/><line style="stroke:#181818;stroke-width:1;stroke-dasharray:2.0,2.0;" x1="1324.9331" x2="1898.3042" y1="680.0078" y2="680.0078"/><text fill="#000000" font-family="sans-serif" font-size="13" lengthAdjust="spacing" textLength="26.4951" x="1336.9331" y="674.9419">ACK</text><polygon fill="#181818" points="963.1733,705.1406,953.1733,709.1406,963.1733,713.1406,959.1733,709.1406" style="stroke:#181818;stroke-width:1;"/><line style="stroke:#181818;stroke-width:1;stroke-dasharray:2.0,2.0;" x1="957.1733" x2="1313.9331" y1="709.1406" y2="709.1406"/><text fill="#000000" font-family="sans-serif" font-size="13" lengthAdjust="spacing" textLength="26.4951" x="969.1733" y="704.0747">ACK</text><polygon fill="#181818" points="324.1025,734.2734,314.1025,738.2734,324.1025,742.2734,320.1025,738.2734" style="stroke:#181818;stroke-width:1;"/><line style="stroke:#181818;stroke-width:1;stroke-dasharray:2.0,2.0;" x1="318.1025" x2="946.1733" y1="738.2734" y2="738.2734"/><text fill="#000000" font-family="sans-serif" font-size="13" lengthAdjust="spacing" textLength="26.4951" x="330.1025" y="733.2075">ACK</text><line style="stroke:#181818;stroke-width:1;" x1="313.1025" x2="355.1025" y1="767.4063" y2="767.4063"/><line style="stroke:#181818;stroke-width:1;" x1="355.1025" x2="355.1025" y1="767.4063" y2="780.4063"/><line style="stroke:#181818;stroke-width:1;" x1="314.1025" x2="355.1025" y1="780.4063" y2="780.4063"/><polygon fill="#181818" points="324.1025,776.4063,314.1025,780.4063,324.1025,784.4063,320.1025,780.4063" style="stroke:#181818;stroke-width:1;"/><text fill="#000000" font-family="sans-serif" font-size="13" lengthAdjust="spacing" textLength="101.6895" x="320.1025" y="762.3403">condition.wait()</text><path d="M249.7939,795.4063 L581.5112,795.4063 L581.5112,802.5391 L571.5112,812.5391 L249.7939,812.5391 L249.7939,795.4063 " fill="#EEEEEE" style="stroke:#000000;stroke-width:1.5;"/><rect fill="#FFFFFF" fill-opacity="0.00000" height="294.3281" style="stroke:#000000;stroke-width:1.5;" width="995.5146" x="249.7939" y="795.4063"/><text fill="#000000" font-family="sans-serif" font-size="13" font-weight="bold" lengthAdjust="spacing" textLength="286.7173" x="264.7939" y="808.4731">Monitor for incoming iMessages locally</text><path d="M259.7939,819.5391 L336.418,819.5391 L336.418,826.6719 L326.418,836.6719 L259.7939,836.6719 L259.7939,819.5391 " fill="#EEEEEE" style="stroke:#000000;stroke-width:1.5;"/><rect fill="#FFFFFF" fill-opacity="0.00000" height="263.1953" style="stroke:#000000;stroke-width:1.5;" width="975.5146" x="259.7939" y="819.5391"/><text fill="#000000" font-family="sans-serif" font-size="13" font-weight="bold" lengthAdjust="spacing" textLength="31.624" x="274.7939" y="832.606">loop</text><text fill="#000000" font-family="sans-serif" font-size="11" font-weight="bold" lengthAdjust="spacing" textLength="137.7632" x="351.418" y="831.7495">[every X milliseconds]</text><polygon fill="#181818" points="1169.0371,853.8047,1179.0371,857.8047,1169.0371,861.8047,1173.0371,857.8047" style="stroke:#181818;stroke-width:1;"/><line style="stroke:#181818;stroke-width:1;" x1="1067.4932" x2="1175.0371" y1="857.8047" y2="857.8047"/><text fill="#000000" font-family="sans-serif" font-size="13" lengthAdjust="spacing" textLength="99.5439" x="1074.4932" y="852.7388">SELECT LIMIT 1</text><polygon fill="#181818" points="1078.4932,882.9375,1068.4932,886.9375,1078.4932,890.9375,1074.4932,886.9375" style="stroke:#181818;stroke-width:1;"/><line style="stroke:#181818;stroke-width:1;stroke-dasharray:2.0,2.0;" x1="1072.4932" x2="1185.0371" y1="886.9375" y2="886.9375"/><text fill="#000000" font-family="sans-serif" font-size="13" lengthAdjust="spacing" textLength="42.0405" x="1084.4932" y="881.8716">record</text><polygon fill="#181818" points="770.0186,912.0703,760.0186,916.0703,770.0186,920.0703,766.0186,916.0703" style="stroke:#181818;stroke-width:1;"/><line style="stroke:#181818;stroke-width:1;" x1="764.0186" x2="1056.4932" y1="916.0703" y2="916.0703"/><text fill="#000000" font-family="sans-serif" font-size="13" lengthAdjust="spacing" textLength="279.4746" x="776.0186" y="911.0044">POST /messageReceived {record.payload}</text><line style="stroke:#181818;stroke-width:1;" x1="759.0186" x2="801.0186" y1="945.2031" y2="945.2031"/><line style="stroke:#181818;stroke-width:1;" x1="801.0186" x2="801.0186" y1="945.2031" y2="958.2031"/><line style="stroke:#181818;stroke-width:1;" x1="760.0186" x2="801.0186" y1="958.2031" y2="958.2031"/><polygon fill="#181818" points="770.0186,954.2031,760.0186,958.2031,770.0186,962.2031,766.0186,958.2031" style="stroke:#181818;stroke-width:1;"/><text fill="#000000" font-family="sans-serif" font-size="13" lengthAdjust="spacing" textLength="159.1548" x="766.0186" y="940.1372">uuid, payload = payload</text><polygon fill="#181818" points="622.7046,983.3359,612.7046,987.3359,622.7046,991.3359,618.7046,987.3359" style="stroke:#181818;stroke-width:1;"/><line style="stroke:#181818;stroke-width:1;" x1="616.7046" x2="748.0186" y1="987.3359" y2="987.3359"/><text fill="#000000" font-family="sans-serif" font-size="13" lengthAdjust="spacing" textLength="118.314" x="628.7046" y="982.27">set(uuid, payload)</text><polygon fill="#181818" points="737.0186,1012.4688,747.0186,1016.4688,737.0186,1020.4688,741.0186,1016.4688" style="stroke:#181818;stroke-width:1;"/><line style="stroke:#181818;stroke-width:1;stroke-dasharray:2.0,2.0;" x1="606.7046" x2="743.0186" y1="1016.4688" y2="1016.4688"/><text fill="#000000" font-family="sans-serif" font-size="13" lengthAdjust="spacing" textLength="26.4951" x="613.7046" y="1011.4028">ACK</text><polygon fill="#181818" points="324.1025,1041.6016,314.1025,1045.6016,324.1025,1049.6016,320.1025,1045.6016" style="stroke:#181818;stroke-width:1;"/><line style="stroke:#181818;stroke-width:1;" x1="318.1025" x2="748.0186" y1="1045.6016" y2="1045.6016"/><text fill="#000000" font-family="sans-serif" font-size="13" lengthAdjust="spacing" textLength="111.5537" x="330.1025" y="1040.5356">condition.notify()</text><polygon fill="#181818" points="1050.4932,1070.7344,1060.4932,1074.7344,1050.4932,1078.7344,1054.4932,1074.7344" style="stroke:#181818;stroke-width:1;"/><line style="stroke:#181818;stroke-width:1;stroke-dasharray:2.0,2.0;" x1="754.0186" x2="1056.4932" y1="1074.7344" y2="1074.7344"/><text fill="#000000" font-family="sans-serif" font-size="13" lengthAdjust="spacing" textLength="62.4419" x="761.0186" y="1069.6685">HTTP 200</text><polygon fill="#181818" points="589.7046,1113.8672,599.7046,1117.8672,589.7046,1121.8672,593.7046,1117.8672" style="stroke:#181818;stroke-width:1;"/><line style="stroke:#181818;stroke-width:1;" x1="313.1025" x2="595.7046" y1="1117.8672" y2="1117.8672"/><text fill="#000000" font-family="sans-serif" font-size="13" lengthAdjust="spacing" textLength="174.4971" x="320.1025" y="1112.8013">responseHTML = get(uuid)</text><polygon fill="#181818" points="324.1025,1143,314.1025,1147,324.1025,1151,320.1025,1147" style="stroke:#181818;stroke-width:1;"/><line style="stroke:#181818;stroke-width:1;stroke-dasharray:2.0,2.0;" x1="318.1025" x2="605.7046" y1="1147" y2="1147"/><text fill="#000000" font-family="sans-serif" font-size="13" lengthAdjust="spacing" textLength="95.5068" x="330.1025" y="1141.9341">responseHTML</text><polygon fill="#181818" points="172.5356,1172.1328,162.5356,1176.1328,172.5356,1180.1328,168.5356,1176.1328" style="stroke:#181818;stroke-width:1;"/><line style="stroke:#181818;stroke-width:1;stroke-dasharray:2.0,2.0;" x1="166.5356" x2="307.1025" y1="1176.1328" y2="1176.1328"/><text fill="#000000" font-family="sans-serif" font-size="13" lengthAdjust="spacing" textLength="95.5068" x="178.5356" y="1171.0669">responseHTML</text><polygon fill="#181818" points="50.4829,1201.2656,40.4829,1205.2656,50.4829,1209.2656,46.4829,1205.2656" style="stroke:#181818;stroke-width:1;"/><line style="stroke:#181818;stroke-width:1;stroke-dasharray:2.0,2.0;" x1="44.4829" x2="155.5356" y1="1205.2656" y2="1205.2656"/><text fill="#000000" font-family="sans-serif" font-size="13" lengthAdjust="spacing" textLength="83.0527" x="56.4829" y="1200.1997">Render Page</text><!--SRC=[bPLRRzem5CVV_IcEkWUesj7BBW-LEcaj4KCBRPG4RGzvCOcX5i7E7DCMLVtkEtQSS0bhcIMKAFRlNFxd75FEkIYeeWkuaSy1pJ8kPd1vJWXDjLHmv8aCnYLJHq1ByCPa8f_1bodD8MBgaQUiX0-_7hXcqKBE6G5SQ4xpb1TKQ3YwKVAfnc_2-_O1QomHF-8uI4IWvFCg4V63OZI32qlvWOKogkc4bcm_CSZbn7oCKbamYmsY__9rwNp5ROgFM5dI6KFhJ6I9yFb4KRMom70KlGNqNT2964d1KL07XVjJgi5oJJgWJz0reFYs025RICqEhC16-AjIiuL9mtALwMXF0fNzTJo925dA-AEhO-ZYVuVPdtpOpduNtKq_tCoVp9HS5k1CmXH_NAHoOVgsCG3AcinNrbCkPG4Cer_1RrZmFESbIwN8IhjhbWaAFdwpdk3a1AuWydplDWP_E1h6SD4SnAdWZnIrRz8mIp6zL08VgLJPFgCXMbmkUNQAPsWUq5KkiUUk8UU2HKNETRTYUqMrTVml8ugLXHGesZLCb_aKSp7D7B8_IrRgRaqdOkESyGidq4aIqS5dlTFoW9rGfLwhMCTKelHCdJRayMxUtsz_DfyorfO8ULC-GhonSOJNGENeDkVf77mkvg1b8XwqBgxEpgPIzh2UfB63jmxf60ZP_fqBSi0q30DR_XheD6MmZulBJxtFlI-zhuGus0ySwyMmumotgWDLdL2s6TFZyR3VHJ6BfbujBUrKPAwWpWhU2IqXJJVY3F62Cw5FeIcpERkflT6wuL0Ls47XnQ6ln31RBJkyYxmmXaK5autYx7_ToDbC0zTSYjuJnMOyFd3ASdDj7JnaTPyTEcBlJvYpYBTsPJ6uZs8uSmAuAok3b-tPUcrmmpcy7izrgTtRxk51KoZTtKBUd8h6qvRMGce-NNLRf1bf_0y-tpTKhPcggbY7LS_eZtZaLqriepmcZO3h_RU-XNRc8J2DjE7T6_y5]--></g></svg>